<svg width="279" height="225" viewBox="0 0 279 225" fill="none" xmlns="http://www.w3.org/2000/svg">
<path d="M75.1154 53.2292C104.402 -0.749985 162.152 -4.3854 216.808 5.03127C239.6 8.95315 257.407 23.6771 266.553 44.7136C277.699 70.3386 283.824 97.3386 272.871 123.984C262.621 148.922 245.095 172.63 220.162 184.328C147.152 218.599 50.9852 165.328 65.7196 79.6823C67.2769 70.6354 70.5321 61.6875 75.1154 53.2292Z" fill="#CCFF63"/>
<path d="M7.35501 140.719C24.5061 109.104 58.3342 106.974 90.3498 112.484C103.699 114.787 114.126 123.406 119.485 135.729C126.016 150.74 129.605 166.557 123.188 182.162C117.183 196.771 106.918 210.656 92.3133 217.51C49.5477 237.583 -6.78041 206.38 1.8498 156.214C2.76126 150.912 4.66751 145.672 7.35501 140.719V140.719Z" stroke="#0061EE" stroke-width="1.33333" stroke-miterlimit="10"/>
</svg>
