<svg width="669" height="1378" viewBox="0 0 669 1378" fill="none" xmlns="http://www.w3.org/2000/svg">
<path d="M16.8184 150.454C162.699 94.0994 319.36 115.99 401.272 192.62C559.693 340.834 426.454 486.516 372.376 623.188C348.235 684.193 313.329 784.183 315.719 845.86C321.11 984.886 385.074 1020.66 393.344 1119.96C404.121 1249.31 369.183 1352.59 193.772 1374.49C112.709 1384.79 48.532 1358.57 0.438232 1316.62" stroke="#FF757F" stroke-width="1.33333" stroke-miterlimit="10"/>
<path d="M379.85 57.615C434.407 -14.6194 519.381 -7.21316 596.975 18.5368C629.334 29.2711 652.048 54.6514 660.751 87.3233C671.355 127.131 674.344 167.829 652.516 204.261C632.089 238.355 601.324 269.047 562.412 280.615C448.449 314.5 320.006 215.693 360.329 94.0993C364.584 81.2556 371.303 68.9274 379.85 57.615Z" fill="#CCFF63"/>
</svg>
